HIERARCHY
ROOT hip
{
  OFFSET 0 0 0
  CHANNELS 6 Xposition Yposition Zposition Zrotation Yrotation Xrotation
  JOINT abdomen
  {
    OFFSET 0 20.6881 -0.73152
    CHANNELS 3 Zrotation Xrotation Yrotation
    JOINT chest
    {
      OFFSET 0 11.7043 -0.48768
      CHANNELS 3 Zrotation Xrotation Yrotation
      JOINT neck
      {
        OFFSET 0 22.1894 -2.19456
        CHANNELS 3 Zrotation Xrotation Yrotation
        JOINT head
        {
          OFFSET -0.24384 7.07133 1.2192
          CHANNELS 3 Zrotation Xrotation Yrotation
          JOINT leftEye
          {
            OFFSET 4.14528 8.04674 8.04672
            CHANNELS 3 Zrotation Xrotation Yrotation
            End Site
            {
              OFFSET 1 0 0
            }
          }
          JOINT rightEye
          {
            OFFSET -3.6576 8.04674 8.04672
            CHANNELS 3 Zrotation Xrotation Yrotation
            End Site
            {
              OFFSET 1 0 0
            }
          }
        }
      }
      JOINT rCollar
      {
        OFFSET -2.68224 19.2634 -4.8768
        CHANNELS 3 Zrotation Xrotation Yrotation
        JOINT rShldr
        {
          OFFSET -8.77824 -1.95073 1.46304
          CHANNELS 3 Zrotation Xrotation Yrotation
          JOINT rForeArm
          {
            OFFSET -28.1742 -1.7115 0.48768
            CHANNELS 3 Zrotation Xrotation Yrotation
            JOINT rHand
            {
              OFFSET -22.5879 0.773209 7.07136
              CHANNELS 3 Zrotation Xrotation Yrotation
              JOINT rThumb1
              {
                OFFSET -1.2192 -0.487915 3.41376
                CHANNELS 3 Zrotation Xrotation Yrotation
                JOINT rThumb2
                {
                  OFFSET -3.37035 -0.52449 3.41376
                  CHANNELS 3 Zrotation Xrotation Yrotation
                  End Site
                  {
                    OFFSET -1.78271 -1.18214 1.43049
                  }
                }
              }
              JOINT rIndex1
              {
                OFFSET -7.75947 0.938293 5.60832
                CHANNELS 3 Zrotation Xrotation Yrotation
                JOINT rIndex2
                {
                  OFFSET -2.54057 -0.884171 1.56538
                  CHANNELS 3 Zrotation Xrotation Yrotation
                  End Site
                  {
                    OFFSET -1.62519 -0.234802 1.16502
                  }
                }
              }
              JOINT rMid1
              {
                OFFSET -8.24714 1.18213 3.41376
                CHANNELS 3 Zrotation Xrotation Yrotation
                JOINT rMid2
                {
                  OFFSET -3.10165 -0.590103 1.0647
                  CHANNELS 3 Zrotation Xrotation Yrotation
                  End Site
                  {
                    OFFSET -2.48547 -0.328903 0.83742
                  }
                }
              }
              JOINT rRing1
              {
                OFFSET -8.82822 0.546677 1.51678
                CHANNELS 3 Zrotation Xrotation Yrotation
                JOINT rRing2
                {
                  OFFSET -2.60934 -0.819778 -0.0198488
                  CHANNELS 3 Zrotation Xrotation Yrotation
                  End Site
                  {
                    OFFSET -2.33842 -0.294052 0.168128
                  }
                }
              }
              JOINT rPinky1
              {
                OFFSET -8.27202 -0.0477905 -0.4584
                CHANNELS 3 Zrotation Xrotation Yrotation
                JOINT rPinky2
                {
                  OFFSET -1.82734 -0.647385 -0.700984
                  CHANNELS 3 Zrotation Xrotation Yrotation
                  End Site
                  {
                    OFFSET -1.69225 -0.51767 -0.607171
                  }
                }
              }
            }
          }
        }
      }
      JOINT lCollar
      {
        OFFSET 2.68224 19.2634 -4.8768
        CHANNELS 3 Zrotation Xrotation Yrotation
        JOINT lShldr
        {
          OFFSET 8.77824 -1.95073 1.46304
          CHANNELS 3 Zrotation Xrotation Yrotation
          JOINT lForeArm
          {
            OFFSET 28.1742 -1.7115 0.48768
            CHANNELS 3 Zrotation Xrotation Yrotation
            JOINT lHand
            {
              OFFSET 22.5879 0.773209 7.07136
              CHANNELS 3 Zrotation Xrotation Yrotation
              JOINT lThumb1
              {
                OFFSET 1.2192 -0.487915 3.41376
                CHANNELS 3 Zrotation Xrotation Yrotation
                JOINT lThumb2
                {
                  OFFSET 3.37035 -0.52449 3.41376
                  CHANNELS 3 Zrotation Xrotation Yrotation
                  End Site
                  {
                    OFFSET 1.78271 -1.18214 1.43049
                  }
                }
              }
              JOINT lIndex1
              {
                OFFSET 7.75947 0.938293 5.60832
                CHANNELS 3 Zrotation Xrotation Yrotation
                JOINT lIndex2
                {
                  OFFSET 2.54057 -0.884171 1.56538
                  CHANNELS 3 Zrotation Xrotation Yrotation
                  End Site
                  {
                    OFFSET 1.62519 -0.234802 1.16502
                  }
                }
              }
              JOINT lMid1
              {
                OFFSET 8.24714 1.18213 3.41376
                CHANNELS 3 Zrotation Xrotation Yrotation
                JOINT lMid2
                {
                  OFFSET 3.10165 -0.590103 1.0647
                  CHANNELS 3 Zrotation Xrotation Yrotation
                  End Site
                  {
                    OFFSET 2.48547 -0.328903 0.83742
                  }
                }
              }
              JOINT lRing1
              {
                OFFSET 8.82822 0.546677 1.51678
                CHANNELS 3 Zrotation Xrotation Yrotation
                JOINT lRing2
                {
                  OFFSET 2.60934 -0.819778 -0.0198488
                  CHANNELS 3 Zrotation Xrotation Yrotation
                  End Site
                  {
                    OFFSET 2.33842 -0.294052 0.168128
                  }
                }
              }
              JOINT lPinky1
              {
                OFFSET 8.27202 -0.0477905 -0.4584
                CHANNELS 3 Zrotation Xrotation Yrotation
                JOINT lPinky2
                {
                  OFFSET 1.82734 -0.647385 -0.700984
                  CHANNELS 3 Zrotation Xrotation Yrotation
                  End Site
                  {
                    OFFSET 1.69225 -0.51767 -0.607171
                  }
                }
              }
            }
          }
        }
      }
    }
  }
  JOINT rButtock
  {
    OFFSET -8.77824 4.35084 1.2192
    CHANNELS 3 Zrotation Xrotation Yrotation
    JOINT rThigh
    {
      OFFSET 0 -1.70687 -2.19456
      CHANNELS 3 Zrotation Xrotation Yrotation
      JOINT rShin
      {
        OFFSET 0 -36.8199 0.73152
        CHANNELS 3 Zrotation Xrotation Yrotation
        JOINT rFoot
        {
          OFFSET 0.73152 -45.1104 -5.12064
          CHANNELS 3 Zrotation Xrotation Yrotation
          End Site
          {
            OFFSET -1.1221 -3.69964 12.103
          }
        }
      }
    }
  }
  JOINT lButtock
  {
    OFFSET 8.77824 4.35084 1.2192
    CHANNELS 3 Zrotation Xrotation Yrotation
    JOINT lThigh
    {
      OFFSET 0 -1.70687 -2.19456
      CHANNELS 3 Zrotation Xrotation Yrotation
      JOINT lShin
      {
        OFFSET 0 -36.8199 0.73152
        CHANNELS 3 Zrotation Xrotation Yrotation
        JOINT lFoot
        {
          OFFSET -0.73152 -45.1104 -5.12064
          CHANNELS 3 Zrotation Xrotation Yrotation
          End Site
          {
            OFFSET 1.1221 -3.69964 12.103
          }
        }
      }
    }
  }
}
MOTION
Frames:	4
Frame Time:	0.03333
0.0018920749425888062 -3.645065426826477 -0.011777132749557495 -5.568880558013916 1.1731268167495728 6.129619121551514 -2.171154260635376 14.016485214233398 3.734682321548462 2.5964200496673584 -9.46221923828125 1.1531965732574463 -5.309816360473633 14.983576774597168 -3.8633365631103516 9.417943000793457 -24.441688537597656 -5.656436920166016 -0.14505907893180847 0.03635675087571144 -0.015528609044849873 -0.02643425017595291 0.0717979297041893 -0.11628268659114838 -0.10403065383434296 -0.027852777391672134 0.024833349511027336 47.26904296875 37.57132339477539 17.206436157226562 -27.272504806518555 -26.849185943603516 61.9246711730957 -0.20083779096603394 -10.144633293151855 -1.600785255432129 -0.12205512821674347 -0.0963432788848877 -0.02069689705967903 0.06981387734413147 -0.010718689300119877 0.02932851016521454 -0.17593395709991455 -0.013546694070100784 0.11671879142522812 7.84459924697876 5.414370536804199 0.5363038182258606 0.029960252344608307 -0.04014410823583603 -0.1645238995552063 2.8788602352142334 1.0986924171447754 -0.07129453867673874 -0.17836669087409973 0.13107463717460632 0.03814848139882088 10.097320556640625 0.6392905712127686 0.12687446177005768 -0.133511021733284 -0.020419562235474586 0.06292129307985306 2.17777943611145 -0.7713744044303894 -0.2226245105266571 0.010616750456392765 0.06861562281847 0.038736604154109955 -54.093692779541016 39.19144058227539 -27.944244384765625 26.577184677124023 -24.446300506591797 -58.64910888671875 0.12508158385753632 -11.186455726623535 1.611616611480713 -0.031460653990507126 -0.14070475101470947 0.05164133757352829 0.006088361144065857 -0.03252730146050453 -0.01266269851475954 0.005333989392966032 -0.2725052833557129 -0.07375213503837585 -7.663977146148682 5.47680139541626 -0.25263744592666626 -0.05928700044751167 0.05103883519768715 -0.0931660458445549 -3.0946907997131348 1.0321853160858154 -0.1197398230433464 -0.017754606902599335 0.06511063128709793 -0.06722547113895416 -10.041358947753906 0.7298378944396973 -0.020315853878855705 -0.2915295660495758 -0.060598116368055344 -0.03146807476878166 -2.2844159603118896 -0.8679075837135315 0.15311652421951294 0.13225485384464264 -0.07174282521009445 0.07563313841819763 -22.494415283203125 -38.505184173583984 -18.93345832824707 -1.3828667402267456 63.30040740966797 2.3654398918151855 -3.998344659805298 -10.71556282043457 -10.966127395629883 0.07211018353700638 0.02919219620525837 -0.21109020709991455 28.929540634155273 -38.838706970214844 21.56147003173828 1.16617751121521 63.731658935546875 -2.233858823776245 4.136441707611084 -10.164541244506836 13.709297180175781
0.003080815076828003 -3.657979890704155 -0.022568926215171814 -5.958122253417969 0.6916481852531433 6.4149980545043945 -2.002678155899048 14.11459732055664 3.9067182540893555 2.5365407466888428 -9.567279815673828 1.166948914527893 -5.29763126373291 15.057619094848633 -3.8548693656921387 9.526644706726074 -24.62708854675293 -5.62691593170166 -0.12484601885080338 0.07002909481525421 -0.062215834856033325 0.043540071696043015 0.129466250538826 -0.03711928427219391 -0.14334310591220856 -0.14160850644111633 -0.007930265739560127 47.07439041137695 37.25629806518555 17.44358253479004 -27.070444107055664 -26.71040153503418 62.03691864013672 -0.18423859775066376 -10.09219741821289 -1.700404405593872 -0.1604071855545044 -0.17720305919647217 -0.031543489545583725 0.06272666901350021 -0.02407182566821575 0.07686743140220642 -0.173678919672966 -0.10145379602909088 0.1463419497013092 7.873702526092529 5.476594924926758 0.5330749750137329 0.08713047206401825 -0.024041173979640007 -0.14172491431236267 2.7769975662231445 1.18966805934906 -0.017015734687447548 -0.22452303767204285 0.1995803564786911 0.15229403972625732 9.984197616577148 0.6086087822914124 0.11414196342229843 -0.09988216310739517 0.038135964423418045 0.04304605349898338 2.0537540912628174 -0.801331102848053 -0.21952475607395172 0.0235866941511631 0.058092229068279266 0.0945119708776474 -53.75545120239258 39.438594818115234 -28.277029037475586 26.576324462890625 -24.346405029296875 -58.67353439331055 0.17923372983932495 -11.531651496887207 1.5380349159240723 -0.04476363956928253 -0.10741974413394928 0.13382145762443542 0.03047809936106205 -0.11598120629787445 -0.057759519666433334 0.012744132429361343 -0.32656437158584595 -0.08441852778196335 -7.741426467895508 5.442134380340576 -0.1918819695711136 -0.0023036065977066755 0.1024877056479454 -0.0664043053984642 -3.0631983280181885 1.0749033689498901 -0.13134849071502686 -0.07095342874526978 0.10744422674179077 -0.08247935026884079 -10.002144813537598 0.7051430940628052 0.001306093530729413 -0.4004993736743927 -0.0014695774298161268 0.034591641277074814 -2.212301254272461 -0.8159987330436707 0.13450878858566284 0.12774677574634552 -0.03316650539636612 0.05246064066886902 -22.262134552001953 -38.55704116821289 -19.08548927307129 -1.3841125965118408 63.388031005859375 2.4614672660827637 -4.0792646408081055 -10.655962944030762 -11.32358169555664 0.07210229337215424 0.08654246479272842 -0.17519782483577728 28.867666244506836 -38.941505432128906 21.643152236938477 1.2531356811523438 64.12217712402344 -2.191080093383789 4.1853532791137695 -10.091161727905273 13.708783149719238
0.010426528751850128 -3.6591943353414536 -0.06259270012378693 -24.66028594970703 27.30736541748047 -0.09787297248840332 6.995089054107666 13.977005958557129 1.9150199890136719 1.8271143436431885 -8.86251163482666 0.5583309531211853 -0.6172661185264587 11.80583381652832 5.952814102172852 4.803962707519531 -22.121421813964844 11.220993995666504 -0.9506478905677795 0.09330503642559052 0.25233253836631775 -0.18076078593730927 0.21918968856334686 -0.2616226375102997 -0.34477102756500244 0.10774289816617966 0.12168259173631668 85.63272857666016 41.25654220581055 -35.78912353515625 -27.997194290161133 -38.960121154785156 81.25178527832031 -2.382864236831665 39.5544319152832 7.071357250213623 -0.11186017096042633 0.33738669753074646 0.25436505675315857 0.9222856163978577 0.4545065462589264 0.6192910075187683 -0.19636233150959015 -0.3415192663669586 1.0474393367767334 7.814870834350586 5.181448459625244 0.3880620002746582 -0.8989821672439575 0.3402691185474396 -0.23282212018966675 3.1633052825927734 1.612552523612976 0.011253918521106243 -0.903290867805481 -0.4401572048664093 0.4271993339061737 10.538531303405762 -0.14632484316825867 0.3530735373497009 0.4566414952278137 -0.5832290649414062 -0.4937009811401367 2.2795307636260986 -1.7071949243545532 -0.2181382179260254 0.7735903263092041 0.023079777136445045 0.4364750385284424 -61.0808219909668 -11.048873901367188 -58.18510055541992 8.49600601196289 -2.979721784591675 -15.272353172302246 4.218933582305908 49.08259201049805 -9.738717079162598 -0.24460914731025696 0.12277016043663025 0.5976591110229492 -0.3608429431915283 -0.004387899301946163 0.024727264419198036 -0.1277882158756256 0.17675651609897614 0.25593826174736023 -7.575288772583008 5.837002754211426 -0.727175235748291 -0.5521635413169861 0.5366279482841492 -0.2199268341064453 -3.0600123405456543 0.7546063661575317 -0.08937806636095047 0.38612794876098633 -0.11091410368680954 0.15620745718479156 -9.839072227478027 0.7952376008033752 -0.5156785845756531 -0.9108193516731262 0.24760986864566803 0.41538891196250916 -2.4279985427856445 -0.34140288829803467 -0.13815930485725403 -0.3237819969654083 -0.6117998957633972 0.5997580885887146 -11.832344055175781 -14.598901748657227 -6.602383136749268 0.8444547653198242 57.21717071533203 1.0337817668914795 -14.00284194946289 -17.936246871948242 -32.95838928222656 -0.3680771589279175 0.7107061743736267 -0.061420638114213943 60.139312744140625 -53.11919021606445 47.15351486206055 4.240424156188965 65.54258728027344 -3.713167190551758 -1.6799635887145996 -0.7037872076034546 -3.784515857696533
0.02721361815929413 -3.73774990439415 -0.08327160030603409 -28.907533645629883 42.610191345214844 -10.579303741455078 5.809413433074951 13.917036056518555 3.944565534591675 1.3925548791885376 -8.95034122467041 1.3656635284423828 0.2995155453681946 11.765166282653809 9.043012619018555 2.765460729598999 -19.75487518310547 14.553875923156738 -1.1508628129959106 0.2830508351325989 -0.06232191249728203 -0.011340860277414322 -0.33523204922676086 -0.1523308902978897 -0.24967189133167267 0.48864713311195374 -0.045094750821590424 87.6294174194336 31.318023681640625 -41.19723129272461 -25.458641052246094 -47.11490249633789 96.48316192626953 -20.60540199279785 73.22570037841797 28.448789596557617 0.32904839515686035 0.735486626625061 0.18769864737987518 1.58206045627594 -0.10408390313386917 1.1141928434371948 -0.06895554810762405 -0.33091282844543457 1.3083940744400024 7.6185994148254395 4.308159828186035 0.9930611848831177 -0.9304481148719788 0.6632564663887024 -0.10111532360315323 3.4978091716766357 1.6974743604660034 -0.3586482107639313 -0.23815542459487915 -0.7162043452262878 -0.2600952982902527 10.068988800048828 -0.24426372349262238 0.4552217423915863 0.2200765758752823 -0.2971794009208679 -1.1313159465789795 2.0804929733276367 -1.6936230659484863 -0.11424479633569717 0.6013318300247192 0.36359336972236633 0.5771850347518921 -76.84178161621094 -22.032941818237305 -69.17858123779297 7.500189304351807 -2.9885215759277344 -12.59801959991455 7.342196941375732 58.589046478271484 -12.93628215789795 0.28528037667274475 0.10254281759262085 0.10100052505731583 -0.270362913608551 -0.3033257722854614 -0.20487715303897858 -0.3818427324295044 0.14385560154914856 0.6779394149780273 -7.206050872802734 5.63498067855835 -1.0298188924789429 0.26572731137275696 0.49404266476631165 0.3766026496887207 -3.5141518115997314 0.16287356615066528 -1.0276597738265991 0.6963242292404175 -0.15877723693847656 0.3457287549972534 -9.963974952697754 0.46567246317863464 -1.2213290929794312 -0.6133843660354614 -0.07435821741819382 0.8672494292259216 -2.7724697589874268 -0.700728178024292 0.3231794536113739 -0.32594308257102966 -0.2823508381843567 0.8021723628044128 -12.770710945129395 -14.50040054321289 -7.227843284606934 1.910785436630249 63.61783218383789 0.2711328864097595 -16.66169548034668 -17.970874786376953 -34.569114685058594 0.15013140439987183 0.4758695662021637 0.11989156901836395 58.069068908691406 -49.91324996948242 43.77779006958008 4.350009918212891 60.25890350341797 -3.5923988819122314 -2.0212748050689697 3.1070141792297363 -6.546760082244873
